<svg id="Layer_1" data-name="Layer 1" xmlns="http://www.w3.org/2000/svg" viewBox="0 0 385.44 143.39"><defs><style>.cls-1{fill:#fff;stroke:#fff;}.cls-1,.cls-2,.cls-3,.cls-5,.cls-6{stroke-miterlimit:22.93;stroke-width:0.22px;}.cls-1,.cls-2,.cls-3,.cls-4,.cls-5,.cls-6{fill-rule:evenodd;}.cls-2,.cls-7{fill:#231f20;}.cls-2{stroke:#231f20;}.cls-3{fill:#00693f;stroke:#00693f;}.cls-4{fill:#febf57;}.cls-5{fill:#004685;stroke:#004685;}.cls-6{fill:#ea1d28;stroke:#ea1d28;}</style></defs><title>emm_logo</title><path class="cls-1" d="M51.12,25.59c-2.94-2.34-5.37-6.66-5.15-9.79C46.65,6.56,58.1.09,69,.5,89,1.25,95.54,13.65,84.73,23.87c1.06-.45,4.71-0.25,5.75-0.86C105.91,13.92,121.86,3.8,133.7.56,143-2,145.79,6.87,146.58,9.47c0.66,2.15-.8,6.85-2.74,9.29-3.23,4.06-9.62,4.49-14,7.06C118.71,30.33,104.08,36,95.7,46.43c10.9-3.36,15.81-9.68,23.84-1,1,1.06,4.9,7.53,1.37,13.2-0.43.69,2.18,3.4,3.15,6.63,8.92,29.67,9.27,46.26-2.84,78h-60c-6.47,0-9.81-2-12.18-4.11A17.94,17.94,0,0,1,45,134.31c-1.37-2.41-1.54-5.86-2.9-8.22-5.48-9.56-9.75-21.27-13.4-35.23C23.94,72.77,19.87,52,18.64,37,10.87,29.73,3.56,22.8.71,15.55-2.86,6.45,10.3-4,17.55,2.69c9.09,8.38,9.22,15,14.88,17.44C41.47,24,43,23.8,51.12,25.59h0Z"/><path class="cls-2" d="M69.74,4C79.83,4,87.27,9,86.31,15.12s-10,11.25-20.06,11.31S48.72,21.51,49.68,15.34,59.65,4.1,69.74,4h0Z"/><path class="cls-3" d="M22,11.52c-2.23-3.29-4.61-5.72-7.09-6.58C6.8,2.15-.84,11.28,6.46,20s35,28.6,57,29.18c0.68,0,1.34-3.59.15-4.09C31.86,31.67,27,18.94,22,11.52h0Z"/><path class="cls-4" d="M40.16,25.57C45,31,55.75,37.08,69.85,41.28c4.61-4.66,9.62-9,14.58-13.92a3.79,3.79,0,0,0,.7-1A0.28,0.28,0,0,0,85,26.09s-10.3,9.22-39.23.92c-2.19-.63-6.55-2.46-5.65-1.44h0Z"/><path class="cls-5" d="M22.9,39.72c7.77,6.5,28.4,14.82,42.9,13.9,0.75,15.77,16.95,14.19,25.64,11.65-17.88,16-35.11,32.47-48.34,57.32C31.93,98.71,26.29,68.78,22.9,39.72h0Z"/><path class="cls-6" d="M119.61,63.48c-16.8,12.76-34.74,34.17-47.8,52.12,9.5-5.85,15-7.39,20.73-1.44,5.18,11.23-16.12,21.88-20.73,26.2h46.93c8.35-21,13.82-46.36.86-76.88h0Z"/><path class="cls-3" d="M72.44,48.74A11.28,11.28,0,0,0,74.59,59.6c5,5.52,25-2.57,29.8-2.53a1.23,1.23,0,0,1,.55,2.18c-9.87,8.31-40.86,32.09-56.66,64.46-3.44,8.07,2.19,15.15,7.6,15.9C65.16,140.1,84.8,126.5,87.74,121c1.62-1.54-.83-6.24-4.64-5.05-8.89,2.77-16.5,9.78-20.1,7.87C61,118,75.09,103.36,79,98.46c13.33-15.13,29.11-31,37.47-38.66,5-4.64,1.86-14.21-5.51-14.41-5.39-.15-14.71,4.31-25.2,6.93-1,.26-2-1.18-1.58-2.29,11-12,29.62-22.66,50.51-29.55,4.84-2.25,7.79-2.69,9.08-8.08,1-5.75-4.31-10.37-8.47-9-28,9.05-58.35,33.07-62.9,45.36h0Z"/><path class="cls-7" d="M167.21,85.32l6.64,2.1a14.92,14.92,0,0,1-5.08,8.26,16,16,0,0,1-20.14-1.92q-4.35-4.62-4.36-12.63,0-8.48,4.38-13.17a15,15,0,0,1,11.51-4.69,14.11,14.11,0,0,1,10.12,3.68,13.34,13.34,0,0,1,3.48,6.25L167,74.82a7,7,0,0,0-7.16-5.7,7.72,7.72,0,0,0-6.13,2.71q-2.35,2.7-2.35,8.78,0,6.44,2.32,9.17a7.5,7.5,0,0,0,6,2.74,6.85,6.85,0,0,0,4.7-1.74,10.12,10.12,0,0,0,2.83-5.46h0Zm12.48-15.45v-6h6.51v6h-6.51Zm0,27.93V73.2h6.51V97.8h-6.51Zm24.45-24.6v5.19H199.7V88.3a24.45,24.45,0,0,0,.13,3.51,1.45,1.45,0,0,0,.58.82,1.86,1.86,0,0,0,1.1.32,8.6,8.6,0,0,0,2.62-.62l0.55,5a13,13,0,0,1-5.15,1,8.27,8.27,0,0,1-3.17-.58,4.67,4.67,0,0,1-2.07-1.53,6,6,0,0,1-.92-2.54,32.35,32.35,0,0,1-.21-4.59V78.39h-3V73.2h3V68.31l6.53-3.8V73.2h4.44Zm1.44,0h6.93l5.88,17.47,5.75-17.47h6.74l-8.68,23.67-1.56,4.29a17.82,17.82,0,0,1-1.63,3.29,7.23,7.23,0,0,1-1.79,1.84,7.85,7.85,0,0,1-2.47,1.1,13,13,0,0,1-3.33.39,17.43,17.43,0,0,1-3.68-.39l-0.58-5.1a14,14,0,0,0,2.76.3,4.1,4.1,0,0,0,3.36-1.33,9.33,9.33,0,0,0,1.67-3.39L205.58,73.2h0Zm41.14,11.95a13.39,13.39,0,0,1,1.6-6.28,11,11,0,0,1,4.53-4.63,13.43,13.43,0,0,1,6.55-1.6,12.28,12.28,0,0,1,9.15,3.63,12.52,12.52,0,0,1,3.57,9.16,12.7,12.7,0,0,1-3.6,9.25,12.16,12.16,0,0,1-9.07,3.67A14.26,14.26,0,0,1,253,96.83a10.5,10.5,0,0,1-4.67-4.48,15,15,0,0,1-1.6-7.19h0Zm6.67,0.35a8.12,8.12,0,0,0,1.74,5.61,5.68,5.68,0,0,0,8.55,0,8.24,8.24,0,0,0,1.73-5.65,8.1,8.1,0,0,0-1.73-5.56,5.68,5.68,0,0,0-8.55,0,8.14,8.14,0,0,0-1.74,5.61h0Zm21-12.29H278V71.35a12.27,12.27,0,0,1,.66-4.63,5.23,5.23,0,0,1,2.43-2.49,9.36,9.36,0,0,1,4.48-1,18.2,18.2,0,0,1,5.45.83l-0.88,4.55a12.57,12.57,0,0,0-3-.37,2.66,2.66,0,0,0-2,.66,3.83,3.83,0,0,0-.61,2.54V73.2h4.86v5.12h-4.86V97.8H278V78.32h-3.61V73.2h0Z"/><path class="cls-7" d="M144.32,141v-34h25.46v5.75H151.25v7.53h17.24v5.72H151.25v9.24h19.18V141H144.32ZM176,141v-34h6.59v18l7.7-8.66h8.11l-8.5,9L199,141h-7.09l-6.26-11-3.06,3.17V141H176Zm43.3,0v-3.68a9.67,9.67,0,0,1-3.57,3.11,10.2,10.2,0,0,1-4.68,1.13,9.27,9.27,0,0,1-4.49-1.08,6.51,6.51,0,0,1-2.89-3.06,13.56,13.56,0,0,1-.89-5.45V116.44h6.58v11.3a30.48,30.48,0,0,0,.37,6.36,3.47,3.47,0,0,0,1.32,1.85,4.09,4.09,0,0,0,2.44.68,5.21,5.21,0,0,0,3-.91,4.71,4.71,0,0,0,1.82-2.27q0.49-1.36.5-6.64V116.44h6.58V141h-6.11Zm19.23,0H232v-24.6h6.11v3.49a10.57,10.57,0,0,1,2.82-3.27,5.27,5.27,0,0,1,2.85-.79,8.39,8.39,0,0,1,4.33,1.23l-2,5.67a5.84,5.84,0,0,0-3.09-1.06,3.65,3.65,0,0,0-2.34.75,5.07,5.07,0,0,0-1.51,2.72,38.19,38.19,0,0,0-.55,8.25V141h0Zm18.93-34v12.48a9.93,9.93,0,0,1,11.71-2.85,6.69,6.69,0,0,1,2.75,2.13,7.7,7.7,0,0,1,1.26,2.88,24.82,24.82,0,0,1,.34,4.89V141H267V128a19.11,19.11,0,0,0-.38-4.91,3.27,3.27,0,0,0-1.33-1.65,4.27,4.27,0,0,0-2.38-.62,5.44,5.44,0,0,0-2.93.79,4.48,4.48,0,0,0-1.89,2.37,14,14,0,0,0-.6,4.69V141h-6.58v-34h6.58Zm39.13,34v-3.68a9.67,9.67,0,0,1-3.57,3.11,10.2,10.2,0,0,1-4.68,1.13,9.27,9.27,0,0,1-4.49-1.08,6.51,6.51,0,0,1-2.89-3.06,13.56,13.56,0,0,1-.89-5.45V116.44h6.58v11.3a30.49,30.49,0,0,0,.37,6.36,3.48,3.48,0,0,0,1.32,1.85,4.08,4.08,0,0,0,2.44.68,5.21,5.21,0,0,0,3-.91,4.71,4.71,0,0,0,1.82-2.27q0.49-1.36.5-6.64V116.44h6.58V141h-6.11Zm12.93,0v-34h6.58v34h-6.58Zm27.73-7.83,6.56,1.08a10.64,10.64,0,0,1-4,5.43,11.77,11.77,0,0,1-6.83,1.87q-6.49,0-9.6-4.19a14,14,0,0,1-2.46-8.48q0-6.12,3.24-9.58a10.69,10.69,0,0,1,8.17-3.46,11.11,11.11,0,0,1,8.76,3.63q3.2,3.63,3.07,11.11H327.7a6.52,6.52,0,0,0,1.59,4.5,5,5,0,0,0,3.8,1.61,4.07,4.07,0,0,0,2.6-.83,5.12,5.12,0,0,0,1.59-2.69h0Zm0.38-6.58a6.24,6.24,0,0,0-1.47-4.3,4.78,4.78,0,0,0-7,.09,6,6,0,0,0-1.38,4.21h9.84ZM372.19,141h-6.58V128.48a19.23,19.23,0,0,0-.42-5.16,3.66,3.66,0,0,0-1.38-1.82,4,4,0,0,0-2.28-.65,5.32,5.32,0,0,0-3.07.92,4.72,4.72,0,0,0-1.86,2.46,21,21,0,0,0-.5,5.65V141h-6.58v-24.6h6.11v3.61a10.28,10.28,0,0,1,12.19-3.4,6.69,6.69,0,0,1,2.73,2,7.15,7.15,0,0,1,1.29,2.74,19.64,19.64,0,0,1,.37,4.37V141h0Zm6.68-27.93v-6h6.58v6h-6.58Zm0,27.93v-24.6h6.58V141h-6.58Z"/></svg>