<?xml version="1.0" encoding="UTF-8"?>
<svg width="1015px" height="277px" viewBox="0 0 1015 277" version="1.1" xmlns="http://www.w3.org/2000/svg" xmlns:xlink="http://www.w3.org/1999/xlink">
    <!-- Generator: Sketch 40 (33762) - http://www.bohemiancoding.com/sketch -->
    <title>emmhack-white</title>
    <desc>Created with Sketch.</desc>
    <defs></defs>
    <g id="Page-1" stroke="none" stroke-width="1" fill="none" fill-rule="evenodd">
        <g id="emmhack-white" fill="#FFFFFF">
            <g id="Page-1">
                <g id="Group">
                    <path d="M33.6705657,275.394114 L31.3726692,266.649341 L16.2129359,266.649341 L13.851209,275.394114 L0,275.394114 L15.2235638,228.542559 L32.042889,228.542559 L47.4579442,275.394114 L33.6705657,275.394114 L33.6705657,275.394114 Z M28.7556205,256.308807 L26.7449612,248.649153 C26.2768688,246.946999 25.7077196,244.74487 25.0374965,242.0427 C24.3672733,239.340531 23.9257837,237.40436 23.7130145,236.234129 C23.5215222,237.319252 23.1438624,239.106487 22.5800239,241.595887 C22.0161854,244.085287 20.7661848,248.989545 18.8299846,256.308807 L28.7556205,256.308807 L28.7556205,256.308807 Z M111.128824,251.07471 C111.128824,258.862065 108.985206,264.862067 104.697906,269.074899 C100.410605,273.28773 94.3840068,275.394114 86.6179291,275.394114 L71.5220262,275.394114 L71.5220262,228.73405 L87.6711317,228.73405 C95.1606093,228.73405 100.942527,230.648945 105.017058,234.478791 C109.091589,238.308638 111.128824,243.840555 111.128824,251.07471 L111.128824,251.07471 L111.128824,251.07471 Z M98.0435808,251.521523 C98.0435808,247.244861 97.1978357,244.074647 95.5063202,242.010785 C93.8148046,239.946923 91.2456544,238.915008 87.7987926,238.915008 L84.1285413,238.915008 L84.1285413,265.05358 L86.9370814,265.05358 C90.7669279,265.05358 93.5754399,263.941877 95.3627016,261.718439 C97.1499633,259.495 98.0435808,256.096062 98.0435808,251.521523 L98.0435808,251.521523 L98.0435808,251.521523 Z M120.511901,275.394114 L120.511901,228.73405 L133.182247,228.73405 L133.182247,275.394114 L120.511901,275.394114 L120.511901,275.394114 Z M163.022985,248.074678 L183.161494,248.074678 L183.161494,273.223878 C177.693324,275.096248 171.682683,276.032418 165.12939,276.032418 C157.93779,276.032418 152.379276,273.947311 148.453684,269.777034 C144.528091,265.606756 142.565324,259.659945 142.565324,251.936421 C142.565324,244.40439 144.714261,238.542685 149.0122,234.35113 C153.310139,230.159576 159.331418,228.06383 167.076219,228.06383 C170.012435,228.06383 172.783713,228.340426 175.390136,228.893626 C177.996559,229.446826 180.267837,230.148954 182.204037,231.000031 L178.214634,240.893752 C174.85288,239.234152 171.161389,238.404364 167.14005,238.404364 C163.459142,238.404364 160.613396,239.601173 158.602726,241.994828 C156.592057,244.388482 155.586737,247.808696 155.586737,252.255573 C155.586737,256.617343 156.496312,259.941813 158.315489,262.229082 C160.134666,264.516352 162.757008,265.659969 166.182593,265.659969 C168.054962,265.659969 169.778367,265.479118 171.35286,265.11741 L171.35286,257.808823 L163.022985,257.808823 L163.022985,248.074678 L163.022985,248.074678 Z M193.693519,275.394114 L193.693519,228.73405 L206.363865,228.73405 L206.363865,275.394114 L193.693519,275.394114 L193.693519,275.394114 Z M238.055687,275.394114 L225.449171,275.394114 L225.449171,239.042669 L214.055435,239.042669 L214.055435,228.73405 L249.417508,228.73405 L249.417508,239.042669 L238.055687,239.042669 L238.055687,275.394114 L238.055687,275.394114 Z M281.17316,275.394114 L278.875263,266.649341 L263.71553,266.649341 L261.353803,275.394114 L247.502594,275.394114 L262.726158,228.542559 L279.545483,228.542559 L294.960538,275.394114 L281.17316,275.394114 L281.17316,275.394114 Z M276.258215,256.308807 L274.247555,248.649153 C273.779463,246.946999 273.210314,244.74487 272.540091,242.0427 C271.869867,239.340531 271.428378,237.40436 271.215609,236.234129 C271.024116,237.319252 270.646457,239.106487 270.082618,241.595887 C269.518779,244.085287 268.268779,248.989545 266.332579,256.308807 L276.258215,256.308807 L276.258215,256.308807 Z M301.024432,275.394114 L301.024432,228.73405 L313.630947,228.73405 L313.630947,265.213156 L331.59922,265.213156 L331.59922,275.394114 L301.024432,275.394114 L301.024432,275.394114 Z M340.088671,275.394114 L340.088671,228.73405 L352.695186,228.73405 L352.695186,265.213156 L370.663459,265.213156 L370.663459,275.394114 L340.088671,275.394114 L340.088671,275.394114 Z M393.86583,246.032104 L401.908468,228.73405 L415.568185,228.73405 L400.216961,257.170519 L400.216961,275.394114 L387.5147,275.394114 L387.5147,257.553501 L372.163475,228.73405 L385.887023,228.73405 L393.86583,246.032104 L393.86583,246.032104 Z M460.409081,238.404364 C457.409034,238.404364 455.068608,239.633088 453.387731,242.090573 C451.706854,244.548058 450.866428,247.936358 450.866428,252.255573 C450.866428,261.234436 454.281323,265.7238 461.111216,265.7238 C463.175078,265.7238 465.175079,265.436565 467.111279,264.862088 C469.047479,264.287612 470.994288,263.596122 472.951766,262.787599 L472.951766,273.447285 C469.058088,275.170716 464.653831,276.032418 459.738861,276.032418 C452.696199,276.032418 447.29726,273.989864 443.541883,269.904695 C439.786506,265.819525 437.908845,259.915267 437.908845,252.191743 C437.908845,247.361881 438.81842,243.117198 440.637597,239.457567 C442.456774,235.797936 445.073797,232.984105 448.488743,231.015989 C451.90369,229.047873 455.919649,228.06383 460.536742,228.06383 C465.579373,228.06383 470.398524,229.159576 474.99434,231.351099 L471.132598,241.276735 C469.409167,240.468212 467.685762,239.78736 465.962331,239.23416 C464.2389,238.68096 462.387835,238.404364 460.409081,238.404364 L460.409081,238.404364 L460.409081,238.404364 Z M525.420401,252.000252 C525.420401,259.851437 523.494868,265.819525 519.643744,269.904695 C515.792621,273.989864 510.15432,276.032418 502.728673,276.032418 C495.409411,276.032418 489.797706,273.979226 485.893391,269.872779 C481.989075,265.766333 480.036946,259.787606 480.036946,251.936421 C480.036946,244.170343 481.978436,238.23949 485.861475,234.143681 C489.744514,230.047873 495.388134,228 502.792504,228 C510.218151,228 515.845813,230.031916 519.67566,234.095809 C523.505506,238.159701 525.420401,244.127789 525.420401,252.000252 L525.420401,252.000252 L525.420401,252.000252 Z M493.313681,252.000252 C493.313681,261.021668 496.45198,265.532308 502.728673,265.532308 C505.920212,265.532308 508.287235,264.436563 509.829812,262.24504 C511.372389,260.053516 512.143666,256.638621 512.143666,252.000252 C512.143666,247.340605 511.36175,243.899114 509.797896,241.675675 C508.234042,239.452237 505.898935,238.340534 502.792504,238.340534 C496.473257,238.340534 493.313681,242.893728 493.313681,252.000252 L493.313681,252.000252 L493.313681,252.000252 Z M579.293306,275.394114 L562.761217,275.394114 L545.718486,242.521429 L545.431249,242.521429 C545.83551,247.691722 546.037638,251.638532 546.037638,254.361978 L546.037638,275.394114 L534.867308,275.394114 L534.867308,228.73405 L551.335566,228.73405 L568.314467,261.159922 L568.505959,261.159922 C568.208082,256.457722 568.059145,252.681124 568.059145,249.830016 L568.059145,228.73405 L579.293306,228.73405 L579.293306,275.394114 L579.293306,275.394114 Z M634.825803,275.394114 L618.293714,275.394114 L601.250983,242.521429 L600.963746,242.521429 C601.368007,247.691722 601.570135,251.638532 601.570135,254.361978 L601.570135,275.394114 L590.399805,275.394114 L590.399805,228.73405 L606.868063,228.73405 L623.846964,261.159922 L624.038455,261.159922 C623.740579,256.457722 623.591642,252.681124 623.591642,249.830016 L623.591642,228.73405 L634.825803,228.73405 L634.825803,275.394114 L634.825803,275.394114 Z M673.63472,275.394114 L645.932302,275.394114 L645.932302,228.73405 L673.63472,228.73405 L673.63472,238.851178 L658.538817,238.851178 L658.538817,246.19168 L672.517687,246.19168 L672.517687,256.308807 L658.538817,256.308807 L658.538817,265.11741 L673.63472,265.11741 L673.63472,275.394114 L673.63472,275.394114 Z M703.603119,238.404364 C700.603073,238.404364 698.262646,239.633088 696.581769,242.090573 C694.900892,244.548058 694.060466,247.936358 694.060466,252.255573 C694.060466,261.234436 697.475361,265.7238 704.305254,265.7238 C706.369116,265.7238 708.369117,265.436565 710.305317,264.862088 C712.241517,264.287612 714.188327,263.596122 716.145804,262.787599 L716.145804,273.447285 C712.252127,275.170716 707.847869,276.032418 702.932899,276.032418 C695.890237,276.032418 690.491298,273.989864 686.735921,269.904695 C682.980544,265.819525 681.102883,259.915267 681.102883,252.191743 C681.102883,247.361881 682.012458,243.117198 683.831635,239.457567 C685.650812,235.797936 688.267835,232.984105 691.682781,231.015989 C695.097728,229.047873 699.113687,228.06383 703.73078,228.06383 C708.773411,228.06383 713.592563,229.159576 718.188378,231.351099 L714.326636,241.276735 C712.603205,240.468212 710.8798,239.78736 709.156369,239.23416 C707.432938,238.68096 705.581873,238.404364 703.603119,238.404364 L703.603119,238.404364 L703.603119,238.404364 Z M746.848253,275.394114 L734.241738,275.394114 L734.241738,239.042669 L722.848002,239.042669 L722.848002,228.73405 L758.210075,228.73405 L758.210075,239.042669 L746.848253,239.042669 L746.848253,275.394114 L746.848253,275.394114 Z M793.604063,275.394114 L765.901644,275.394114 L765.901644,228.73405 L793.604063,228.73405 L793.604063,238.851178 L778.50816,238.851178 L778.50816,246.19168 L792.48703,246.19168 L792.48703,256.308807 L778.50816,256.308807 L778.50816,265.11741 L793.604063,265.11741 L793.604063,275.394114 L793.604063,275.394114 Z M842.402446,251.07471 C842.402446,258.862065 840.258828,264.862067 835.971528,269.074899 C831.684227,273.28773 825.657629,275.394114 817.891551,275.394114 L802.795648,275.394114 L802.795648,228.73405 L818.944754,228.73405 C826.434231,228.73405 832.216149,230.648945 836.29068,234.478791 C840.365211,238.308638 842.402446,243.840555 842.402446,251.07471 L842.402446,251.07471 L842.402446,251.07471 Z M829.317203,251.521523 C829.317203,247.244861 828.471458,244.074647 826.779942,242.010785 C825.088427,239.946923 822.519276,238.915008 819.072415,238.915008 L815.402163,238.915008 L815.402163,265.05358 L818.210703,265.05358 C822.04055,265.05358 824.849062,263.941877 826.636324,261.718439 C828.423585,259.495 829.317203,256.096062 829.317203,251.521523 L829.317203,251.521523 L829.317203,251.521523 Z M890.562526,238.404364 C887.562479,238.404364 885.222052,239.633088 883.541175,242.090573 C881.860298,244.548058 881.019872,247.936358 881.019872,252.255573 C881.019872,261.234436 884.434768,265.7238 891.264661,265.7238 C893.328522,265.7238 895.328523,265.436565 897.264723,264.862088 C899.200924,264.287612 901.147733,263.596122 903.10521,262.787599 L903.10521,273.447285 C899.211533,275.170716 894.807275,276.032418 889.892306,276.032418 C882.849644,276.032418 877.450705,273.989864 873.695327,269.904695 C869.93995,265.819525 868.06229,259.915267 868.06229,252.191743 C868.06229,247.361881 868.971865,243.117198 870.791042,239.457567 C872.610219,235.797936 875.227241,232.984105 878.642188,231.015989 C882.057134,229.047873 886.073094,228.06383 890.690186,228.06383 C895.732818,228.06383 900.551969,229.159576 905.147785,231.351099 L901.286042,241.276735 C899.562611,240.468212 897.839206,239.78736 896.115775,239.23416 C894.392344,238.68096 892.54128,238.404364 890.562526,238.404364 L890.562526,238.404364 L890.562526,238.404364 Z M913.222338,275.394114 L913.222338,228.73405 L925.892683,228.73405 L925.892683,275.394114 L913.222338,275.394114 L913.222338,275.394114 Z M957.584505,275.394114 L944.977989,275.394114 L944.977989,239.042669 L933.584253,239.042669 L933.584253,228.73405 L968.946326,228.73405 L968.946326,239.042669 L957.584505,239.042669 L957.584505,275.394114 L957.584505,275.394114 Z M993.297645,246.032104 L1001.34028,228.73405 L1015,228.73405 L999.648775,257.170519 L999.648775,275.394114 L986.946514,275.394114 L986.946514,257.553501 L971.59529,228.73405 L985.318838,228.73405 L993.297645,246.032104 L993.297645,246.032104 Z" id="A-DIGITALLY-CONNECTE"></path>
                    <path d="M22.6584104,38.1642811 L0,38.1642811 L0,0 L22.6584104,0 L22.6584104,8.27501855 L10.311143,8.27501855 L10.311143,14.2789752 L21.7447648,14.2789752 L21.7447648,22.5539938 L10.311143,22.5539938 L10.311143,29.7587418 L22.6584104,29.7587418 L22.6584104,38.1642811 L22.6584104,38.1642811 Z M136.996637,38.1642811 L125.354182,38.1642811 L117.81008,23.572056 L114.755893,25.3993471 L114.755893,38.1642811 L104.392542,38.1642811 L104.392542,0 L114.755893,0 L114.755893,16.5761413 C115.277979,15.5493725 116.330836,13.9222295 117.914496,11.6946634 L125.928473,0 L137.20547,0 L125.171453,17.0982244 L136.996637,38.1642811 L136.996637,38.1642811 Z M248.620031,0 L248.620031,22.9716603 C248.620031,27.9662811 247.20607,31.8340087 244.378105,34.5749592 C241.55014,37.3159096 237.473581,38.6863643 232.148306,38.6863643 C226.944851,38.6863643 222.946604,37.3550655 220.153445,34.6924279 C217.360286,32.0297903 215.963727,28.2012186 215.963727,23.2065978 L215.963727,0 L226.327078,0 L226.327078,22.3973688 C226.327078,25.0948121 226.831754,27.0526045 227.84112,28.2708047 C228.850486,29.4890049 230.338408,30.0980959 232.304931,30.0980959 C234.410677,30.0980959 235.937755,29.4933555 236.886211,28.2838568 C237.834667,27.074358 238.308888,25.0948124 238.308888,22.3451605 L238.308888,0 L248.620031,0 L248.620031,0 Z M341.996617,24.2768683 L341.996617,38.1642811 L331.685474,38.1642811 L331.685474,0 L344.189366,0 C354.561471,0 359.747445,3.75896137 359.747445,11.2769969 C359.747445,15.6973233 357.589523,19.116934 353.273614,21.5359315 L364.393986,38.1642811 L352.699322,38.1642811 L344.607033,24.2768683 L341.996617,24.2768683 L341.996617,24.2768683 Z M341.996617,16.5239329 L343.928325,16.5239329 C347.530717,16.5239329 349.331886,14.9315951 349.331886,11.7468718 C349.331886,9.1190399 347.565522,7.80514368 344.032741,7.80514368 L341.996617,7.80514368 L341.996617,16.5239329 L341.996617,16.5239329 Z M475.625817,38.1642811 L465.262466,38.1642811 L465.262466,22.6062021 L453.280657,22.6062021 L453.280657,38.1642811 L442.917306,38.1642811 L442.917306,0 L453.280657,0 L453.280657,14.1484544 L465.262466,14.1484544 L465.262466,0 L475.625817,0 L475.625817,38.1642811 L475.625817,38.1642811 Z M591.373668,0 L591.373668,22.9716603 C591.373668,27.9662811 589.959707,31.8340087 587.131742,34.5749592 C584.303778,37.3159096 580.227219,38.6863643 574.901944,38.6863643 C569.698489,38.6863643 565.700241,37.3550655 562.907082,34.6924279 C560.113923,32.0297903 558.717365,28.2012186 558.717365,23.2065978 L558.717365,0 L569.080716,0 L569.080716,22.3973688 C569.080716,25.0948121 569.585392,27.0526045 570.594757,28.2708047 C571.604123,29.4890049 573.092045,30.0980959 575.058569,30.0980959 C577.164315,30.0980959 578.691393,29.4933555 579.639849,28.2838568 C580.588305,27.074358 581.062525,25.0948124 581.062525,22.3451605 L581.062525,0 L591.373668,0 L591.373668,0 Z M674.439112,38.1642811 L674.439112,0 L684.750255,0 L684.750255,29.8370543 L699.446896,29.8370543 L699.446896,38.1642811 L674.439112,38.1642811 L674.439112,38.1642811 Z M803.265147,38.1642811 L780.606736,38.1642811 L780.606736,0 L803.265147,0 L803.265147,8.27501855 L790.917879,8.27501855 L790.917879,14.2789752 L802.351501,14.2789752 L802.351501,22.5539938 L790.917879,22.5539938 L790.917879,29.7587418 L803.265147,29.7587418 L803.265147,38.1642811 L803.265147,38.1642811 Z M921.336268,38.1642811 L907.814313,38.1642811 L893.874692,11.2769969 L893.639755,11.2769969 C893.970409,15.5058919 894.135734,18.734074 894.135734,20.96164 L894.135734,38.1642811 L884.999278,38.1642811 L884.999278,0 L898.469024,0 L912.356437,26.521826 L912.513062,26.521826 C912.269422,22.6757939 912.147604,19.5868326 912.147604,17.2548494 L912.147604,0 L921.336268,0 L921.336268,38.1642811 L921.336268,38.1642811 Z M1004.63665,38.1642811 L1004.63665,0 L1015,0 L1015,38.1642811 L1004.63665,38.1642811 L1004.63665,38.1642811 Z" id="EKURHULENI"></path>
                    <path d="M103.530336,185.832386 C103.362539,179.174716 102.85915,171.12358 102.85915,150.53125 L102.85915,116.62358 C102.85915,95.7215909 103.194743,88.7542614 103.530336,81.0127841 L68.7964953,81.0127841 C68.9642916,86.4318182 69.1320879,94.1732955 69.1320879,106.09517 L69.1320879,119.875 L34.2304513,119.875 L34.2304513,105.321023 C34.2304513,95.1022727 34.566044,86.4318182 34.7338403,81.0127841 L0.16779633,81.0127841 C0.50338899,89.3735795 0.50338899,92.4701705 0.50338899,116.159091 L0.50338899,150.221591 C0.50338899,172.517045 0.16779633,178.090909 0,185.832386 L34.566044,185.832386 C34.3982476,179.484375 34.2304513,170.81392 34.2304513,160.59517 L34.2304513,146.660511 L69.1320879,146.660511 L69.1320879,160.75 C69.1320879,170.659091 68.9642916,179.329545 68.7964953,185.832386 L103.530336,185.832386 L103.530336,185.832386 Z M232.73351,185.832386 C229.545379,178.245739 223.001323,160.75 214.275913,136.75142 C204.879319,111.204545 196.992891,89.8380682 193.972557,81.0127841 L154.54042,81.0127841 C151.687882,89.21875 144.47264,109.50142 135.076046,133.5 C125.343858,158.582386 118.128616,176.387784 114.101504,185.832386 L151.855679,185.832386 C153.198049,180.877841 155.714994,172.671875 158.231939,164.15625 L188.267482,164.15625 C191.287816,173.446023 193.469168,180.258523 195.314928,185.832386 L232.73351,185.832386 L232.73351,185.832386 Z M182.226814,142.789773 L162.930236,142.789773 L171.320053,113.372159 C171.823442,111.359375 172.326831,107.488636 172.326831,105.785511 L172.83022,105.785511 C172.83022,107.333807 173.333609,111.978693 173.836998,113.526989 L182.226814,142.789773 L182.226814,142.789773 Z M325.52488,82.8707386 C318.141842,81.0127841 306.731691,79.3096591 297.670689,79.3096591 C261.258886,79.3096591 234.243677,100.985795 234.243677,135.977273 C234.243677,168.491477 258.070755,188 293.643577,188 C304.382543,188 316.967267,186.142045 325.189287,183.200284 L321.833361,156.259943 C315.289304,159.975852 307.402877,161.988636 299.684245,161.988636 C281.730038,161.988636 269.984295,151.615057 269.984295,134.274148 C269.984295,116.778409 282.233427,106.09517 300.523227,106.09517 C308.074062,106.09517 315.4571,108.107955 321.329972,111.669034 L325.52488,82.8707386 L325.52488,82.8707386 Z M443.150107,185.832386 C432.243346,169.420455 416.638287,143.409091 409.087452,130.867898 C417.309473,117.707386 433.921309,91.5411932 440.968755,81.0127841 L401.704414,81.0127841 L377.20615,125.448864 C376.199372,127.151989 374.857001,129.93892 374.01802,131.642045 L374.01802,124.365057 L374.01802,81.0127841 L340.123161,81.0127841 C340.458754,87.6704545 340.290957,100.830966 340.290957,120.02983 L340.290957,148.673295 C340.290957,166.633523 340.290957,179.329545 339.955365,185.832386 L374.01802,185.832386 L374.01802,140.622159 L374.01802,133.65483 C374.689205,135.512784 376.031575,138.144886 377.20615,140.3125 L401.368821,185.832386 L443.150107,185.832386 L443.150107,185.832386 Z M562.956687,185.832386 C559.768557,178.245739 553.2245,160.75 544.499091,136.75142 C535.102496,111.204545 527.216069,89.8380682 524.195735,81.0127841 L484.763597,81.0127841 C481.91106,89.21875 474.695817,109.50142 465.299223,133.5 C455.567036,158.582386 448.351794,176.387784 444.324682,185.832386 L482.078856,185.832386 C483.421227,180.877841 485.938172,172.671875 488.455117,164.15625 L518.49066,164.15625 C521.510994,173.446023 523.692346,180.258523 525.538105,185.832386 L562.956687,185.832386 L562.956687,185.832386 Z M512.449992,142.789773 L493.153414,142.789773 L501.54323,113.372159 C502.046619,111.359375 502.550008,107.488636 502.550008,105.785511 L503.053397,105.785511 C503.053397,107.333807 503.556786,111.978693 504.060175,113.526989 L512.449992,142.789773 L512.449992,142.789773 Z M648.197223,107.488636 L647.86163,81.0127841 L556.580427,81.0127841 L556.077038,107.488636 C561.110927,107.333807 567.319392,107.178977 574.534634,107.178977 L585.105803,107.178977 L585.105803,146.505682 C585.105803,159.821023 584.938006,177.316761 584.602414,185.832386 L618.497272,185.832386 C618.329476,176.542614 618.16168,161.214489 618.16168,146.660511 L618.16168,107.178977 L629.57183,107.178977 C636.283683,107.178977 642.659944,107.333807 648.197223,107.488636 L648.197223,107.488636 L648.197223,107.488636 Z M762.969912,185.832386 C762.802116,179.174716 762.298727,171.12358 762.298727,150.53125 L762.298727,116.62358 C762.298727,95.7215909 762.63432,88.7542614 762.969912,81.0127841 L728.236072,81.0127841 C728.403868,86.4318182 728.571665,94.1732955 728.571665,106.09517 L728.571665,119.875 L693.670028,119.875 L693.670028,105.321023 C693.670028,95.1022727 694.005621,86.4318182 694.173417,81.0127841 L659.607373,81.0127841 C659.942966,89.3735795 659.942966,92.4701705 659.942966,116.159091 L659.942966,150.221591 C659.942966,172.517045 659.607373,178.090909 659.439577,185.832386 L694.005621,185.832386 C693.837824,179.484375 693.670028,170.81392 693.670028,160.59517 L693.670028,146.660511 L728.571665,146.660511 L728.571665,160.75 C728.571665,170.659091 728.403868,179.329545 728.236072,185.832386 L762.969912,185.832386 L762.969912,185.832386 Z M890.662919,132.880682 C890.662919,99.4375 869.520582,79 836.129112,79 C800.724087,79 777.568193,101.295455 777.568193,134.274148 C777.568193,166.788352 799.21392,187.84517 833.612167,187.84517 C867.674822,187.84517 890.662919,165.394886 890.662919,132.880682 L890.662919,132.880682 L890.662919,132.880682 Z M855.090098,134.274148 C855.090098,152.853693 845.190114,161.988636 834.283353,161.988636 C822.369813,161.988636 812.973219,152.389205 812.973219,134.119318 C812.973219,115.384943 822.369813,105.475852 834.283353,105.475852 C845.861299,105.475852 855.090098,114.920455 855.090098,134.274148 L855.090098,134.274148 L855.090098,134.274148 Z M1015,81.0127841 L983.118697,81.0127841 L983.118697,133.190341 C983.118697,135.512784 983.622086,139.693182 983.957679,141.860795 L983.45429,141.860795 C982.783105,140.3125 981.60853,137.680398 980.26616,135.977273 L938.820466,81.0127841 L905.764589,81.0127841 C906.100182,88.2897727 906.100182,102.379261 906.100182,117.088068 L906.100182,147.899148 C906.100182,162.298295 905.932386,179.639205 905.764589,185.832386 L937.142503,185.832386 L937.142503,129.93892 C937.142503,128.080966 936.80691,124.519886 936.303521,122.197443 L936.80691,122.197443 C937.310299,123.900568 938.988263,127.616477 940.162837,129.164773 L984.461068,186.142045 L1014.8322,186.142045 C1014.8322,179.174716 1014.66441,165.394886 1014.66441,147.27983 L1014.66441,116.62358 C1014.66441,98.3536932 1014.66441,87.8252841 1015,81.0127841 L1015,81.0127841 L1015,81.0127841 Z" id="HACKATHON"></path>
                </g>
            </g>
        </g>
    </g>
</svg>